<svg viewBox="0 0 52 52" fill="none" xmlns="http://www.w3.org/2000/svg">
  <defs>
    <linearGradient id="peak-main" x1="26" y1="8" x2="26" y2="42" gradientUnits="userSpaceOnUse">
      <stop stop-color="#9f7aea"/>
      <stop offset="0.55" stop-color="#8b6cf8"/>
      <stop offset="1" stop-color="#6d4fd9"/>
    </linearGradient>
    <linearGradient id="peak-left" x1="8" y1="42" x2="18" y2="22" gradientUnits="userSpaceOnUse">
      <stop stop-color="#c4b5fd"/>
      <stop offset="1" stop-color="#a78bfa"/>
    </linearGradient>
    <linearGradient id="peak-ridge" x1="22" y1="42" x2="34" y2="10" gradientUnits="userSpaceOnUse">
      <stop stop-color="#7c5ce8"/>
      <stop offset="1" stop-color="#5b3fd4"/>
    </linearGradient>
    <linearGradient id="peak-snow" x1="12" y1="28" x2="20" y2="18" gradientUnits="userSpaceOnUse">
      <stop stop-color="#ffffff"/>
      <stop offset="1" stop-color="#ede9fe" stop-opacity="0.35"/>
    </linearGradient>
    <linearGradient id="peak-flag" x1="33" y1="2" x2="42" y2="8" gradientUnits="userSpaceOnUse">
      <stop stop-color="#f0abfc"/>
      <stop offset="1" stop-color="#e879f9"/>
    </linearGradient>
  </defs>
  <ellipse cx="26" cy="43.5" rx="19" ry="2.8" fill="#8b6cf8" opacity="0.18"/>
  <path d="M5 41.5 L16.5 24.5 L21.8 30.8 L30.5 9.5 L43.5 41.5 Z" fill="url(#peak-main)"/>
  <path d="M5 41.5 L16.5 24.5 L11.5 41.5 Z" fill="url(#peak-left)"/>
  <path d="M16.5 24.5 L21.8 30.8 L17.2 41.5 L11.5 41.5 Z" fill="#5b3fd4" opacity="0.42"/>
  <path d="M21.8 30.8 L30.5 9.5 L29.2 30.8 Z" fill="url(#peak-ridge)" opacity="0.9"/>
  <path d="M13.8 27.2 L16.5 24.5 L18.8 27.8 Z" fill="url(#peak-snow)"/>
  <path d="M27.8 14.2 L30.5 9.5 L32.8 14.8 Z" fill="#ffffff" opacity="0.92"/>
  <path d="M29.4 11.8 L30.5 9.5 L31.4 12.2 Z" fill="#ffffff"/>
  <circle cx="30.5" cy="9.5" r="1.1" fill="#ffffff" opacity="0.85"/>
  <line x1="30.5" y1="9.5" x2="30.5" y2="3.2" stroke="#5b3fd4" stroke-width="1.6" stroke-linecap="round"/>
  <path d="M30.5 3.2 H39.2 L37 5.2 L39.5 7.2 L36.8 7.2 L34.2 9.2 H30.5 V3.2 Z" fill="url(#peak-flag)"/>
  <path d="M37 5.2 L39.5 7.2 L35 6.6 Z" fill="#fdf4ff" opacity="0.55"/>
</svg>
